<svg xmlns="http://www.w3.org/2000/svg" viewBox="0 0 800 500" fill="none">
  <rect width="800" height="500" fill="#f8f7f4"/>
  <text x="40" y="48" font-family="system-ui,sans-serif" font-size="14" font-weight="600" fill="#1a1a1a" letter-spacing="0.08em">WORKFLOW AUTOMATION</text>
  <rect x="40" y="80" width="140" height="56" rx="4" fill="#fff" stroke="#c8c4bc" stroke-width="1.5"/>
  <text x="110" y="114" text-anchor="middle" font-family="system-ui,sans-serif" font-size="13" fill="#1a1a1a">Trigger</text>
  <path d="M180 108h50" stroke="#8b7355" stroke-width="2" marker-end="url(#arrow)"/>
  <rect x="230" y="80" width="140" height="56" rx="4" fill="#fff" stroke="#c8c4bc" stroke-width="1.5"/>
  <text x="300" y="114" text-anchor="middle" font-family="system-ui,sans-serif" font-size="13" fill="#1a1a1a">Validate</text>
  <path d="M370 108h50" stroke="#8b7355" stroke-width="2" marker-end="url(#arrow)"/>
  <rect x="420" y="80" width="140" height="56" rx="4" fill="#8b7355" fill-opacity="0.12" stroke="#8b7355" stroke-width="1.5"/>
  <text x="490" y="114" text-anchor="middle" font-family="system-ui,sans-serif" font-size="13" fill="#1a1a1a">Automate</text>
  <path d="M560 108h50" stroke="#8b7355" stroke-width="2" marker-end="url(#arrow)"/>
  <rect x="610" y="80" width="150" height="56" rx="4" fill="#fff" stroke="#c8c4bc" stroke-width="1.5"/>
  <text x="685" y="114" text-anchor="middle" font-family="system-ui,sans-serif" font-size="13" fill="#1a1a1a">Notify</text>
  <rect x="40" y="200" width="720" height="240" rx="6" fill="#fff" stroke="#c8c4bc" stroke-width="1.5"/>
  <text x="60" y="232" font-family="system-ui,sans-serif" font-size="11" font-weight="600" fill="#8b7355" letter-spacing="0.1em">INTEGRATIONS</text>
  <rect x="60" y="250" width="120" height="44" rx="3" fill="#f0eeea" stroke="#c8c4bc"/>
  <text x="120" y="277" text-anchor="middle" font-family="system-ui,sans-serif" font-size="12" fill="#4a4a4a">CRM</text>
  <rect x="210" y="250" width="120" height="44" rx="3" fill="#f0eeea" stroke="#c8c4bc"/>
  <text x="270" y="277" text-anchor="middle" font-family="system-ui,sans-serif" font-size="12" fill="#4a4a4a">Email</text>
  <rect x="360" y="250" width="120" height="44" rx="3" fill="#f0eeea" stroke="#c8c4bc"/>
  <text x="420" y="277" text-anchor="middle" font-family="system-ui,sans-serif" font-size="12" fill="#4a4a4a">Telegram</text>
  <rect x="510" y="250" width="120" height="44" rx="3" fill="#f0eeea" stroke="#c8c4bc"/>
  <text x="570" y="277" text-anchor="middle" font-family="system-ui,sans-serif" font-size="12" fill="#4a4a4a">1C / ERP</text>
  <rect x="660" y="250" width="80" height="44" rx="3" fill="#f0eeea" stroke="#c8c4bc"/>
  <text x="700" y="277" text-anchor="middle" font-family="system-ui,sans-serif" font-size="12" fill="#4a4a4a">Docs</text>
  <line x1="120" y1="294" x2="120" y2="340" stroke="#c8c4bc" stroke-width="1" stroke-dasharray="4"/>
  <line x1="270" y1="294" x2="270" y2="340" stroke="#c8c4bc" stroke-width="1" stroke-dasharray="4"/>
  <line x1="420" y1="294" x2="420" y2="340" stroke="#c8c4bc" stroke-width="1" stroke-dasharray="4"/>
  <line x1="570" y1="294" x2="570" y2="340" stroke="#c8c4bc" stroke-width="1" stroke-dasharray="4"/>
  <line x1="700" y1="294" x2="700" y2="340" stroke="#c8c4bc" stroke-width="1" stroke-dasharray="4"/>
  <rect x="200" y="340" width="400" height="48" rx="4" fill="#8b7355" fill-opacity="0.15" stroke="#8b7355" stroke-width="1.5"/>
  <text x="400" y="370" text-anchor="middle" font-family="system-ui,sans-serif" font-size="13" font-weight="500" fill="#1a1a1a">Orchestration Layer · n8n / Custom API</text>
  <defs>
    <marker id="arrow" markerWidth="8" markerHeight="8" refX="6" refY="3" orient="auto">
      <path d="M0,0 L6,3 L0,6" fill="#8b7355"/>
    </marker>
  </defs>
</svg>
