<svg xmlns="http://www.w3.org/2000/svg" viewBox="0 0 800 500" fill="none">
  <rect width="800" height="500" fill="#f8f7f4"/>
  <text x="40" y="48" font-family="system-ui,sans-serif" font-size="14" font-weight="600" fill="#1a1a1a" letter-spacing="0.08em">CRM INTEGRATION ARCHITECTURE</text>
  <rect x="300" y="70" width="200" height="70" rx="6" fill="#8b7355" fill-opacity="0.15" stroke="#8b7355" stroke-width="2"/>
  <text x="400" y="100" text-anchor="middle" font-family="system-ui,sans-serif" font-size="14" font-weight="600" fill="#1a1a1a">CRM</text>
  <text x="400" y="122" text-anchor="middle" font-family="system-ui,sans-serif" font-size="11" fill="#6a6a6a">amoCRM Ę Bitrix24</text>
  <line x1="400" y1="140" x2="400" y2="170" stroke="#8b7355" stroke-width="2"/>
  <rect x="300" y="170" width="200" height="50" rx="4" fill="#fff" stroke="#c8c4bc" stroke-width="1.5"/>
  <text x="400" y="200" text-anchor="middle" font-family="system-ui,sans-serif" font-size="12" fill="#1a1a1a">REST API Ę Webhooks</text>
  <line x1="200" y1="195" x2="300" y2="195" stroke="#c8c4bc" stroke-width="1.5"/>
  <line x1="500" y1="195" x2="600" y2="195" stroke="#c8c4bc" stroke-width="1.5"/>
  <line x1="400" y1="220" x2="400" y2="260" stroke="#8b7355" stroke-width="2"/>
  <rect x="40" y="140" width="150" height="110" rx="4" fill="#fff" stroke="#c8c4bc"/>
  <text x="115" y="175" text-anchor="middle" font-family="system-ui,sans-serif" font-size="12" fill="#4a4a4a">Website</text>
  <text x="115" y="195" text-anchor="middle" font-family="system-ui,sans-serif" font-size="12" fill="#4a4a4a">Leads</text>
  <rect x="610" y="140" width="150" height="110" rx="4" fill="#fff" stroke="#c8c4bc"/>
  <text x="685" y="175" text-anchor="middle" font-family="system-ui,sans-serif" font-size="12" fill="#4a4a4a">1C / ERP</text>
  <text x="685" y="195" text-anchor="middle" font-family="system-ui,sans-serif" font-size="12" fill="#4a4a4a">Orders</text>
  <rect x="250" y="260" width="300" height="60" rx="4" fill="#fff" stroke="#8b7355" stroke-width="1.5"/>
  <text x="400" y="295" text-anchor="middle" font-family="system-ui,sans-serif" font-size="13" font-weight="500" fill="#1a1a1a">Sync &amp; Workflow Engine</text>
  <rect x="40" y="360" width="160" height="90" rx="4" fill="#f0eeea" stroke="#c8c4bc"/>
  <text x="120" y="395" text-anchor="middle" font-family="system-ui,sans-serif" font-size="12" fill="#4a4a4a">Documents</text>
  <text x="120" y="415" text-anchor="middle" font-family="system-ui,sans-serif" font-size="11" fill="#8a8a8a">Proposals Ę Contracts</text>
  <rect x="230" y="360" width="160" height="90" rx="4" fill="#f0eeea" stroke="#c8c4bc"/>
  <text x="310" y="395" text-anchor="middle" font-family="system-ui,sans-serif" font-size="12" fill="#4a4a4a">Telegram</text>
  <text x="310" y="415" text-anchor="middle" font-family="system-ui,sans-serif" font-size="11" fill="#8a8a8a">Notifications</text>
  <rect x="420" y="360" width="160" height="90" rx="4" fill="#f0eeea" stroke="#c8c4bc"/>
  <text x="500" y="395" text-anchor="middle" font-family="system-ui,sans-serif" font-size="12" fill="#4a4a4a">Email</text>
  <text x="500" y="415" text-anchor="middle" font-family="system-ui,sans-serif" font-size="11" fill="#8a8a8a">Follow-up</text>
  <rect x="610" y="360" width="150" height="90" rx="4" fill="#f0eeea" stroke="#c8c4bc"/>
  <text x="685" y="395" text-anchor="middle" font-family="system-ui,sans-serif" font-size="12" fill="#4a4a4a">Dashboard</text>
  <text x="685" y="415" text-anchor="middle" font-family="system-ui,sans-serif" font-size="11" fill="#8a8a8a">Analytics</text>
</svg>
