<svg xmlns="http://www.w3.org/2000/svg" viewBox="0 0 800 500" fill="none">
  <rect width="800" height="500" fill="#f8f7f4"/>
  <text x="40" y="48" font-family="system-ui,sans-serif" font-size="14" font-weight="600" fill="#1a1a1a" letter-spacing="0.08em">DOCUMENT WORKFLOW</text>
  <rect x="40" y="90" width="130" height="80" rx="4" fill="#fff" stroke="#c8c4bc" stroke-width="1.5"/>
  <text x="105" y="125" text-anchor="middle" font-family="system-ui,sans-serif" font-size="12" fill="#4a4a4a">Intake</text>
  <text x="105" y="145" text-anchor="middle" font-family="system-ui,sans-serif" font-size="10" fill="#8a8a8a">Email · Scan</text>
  <path d="M170 130h40" stroke="#8b7355" stroke-width="2" marker-end="url(#a)"/>
  <rect x="210" y="90" width="130" height="80" rx="4" fill="#fff" stroke="#c8c4bc" stroke-width="1.5"/>
  <text x="275" y="125" text-anchor="middle" font-family="system-ui,sans-serif" font-size="12" fill="#4a4a4a">Extract</text>
  <text x="275" y="145" text-anchor="middle" font-family="system-ui,sans-serif" font-size="10" fill="#8a8a8a">OCR · AI</text>
  <path d="M340 130h40" stroke="#8b7355" stroke-width="2" marker-end="url(#a)"/>
  <rect x="380" y="90" width="130" height="80" rx="4" fill="#8b7355" fill-opacity="0.12" stroke="#8b7355" stroke-width="1.5"/>
  <text x="445" y="125" text-anchor="middle" font-family="system-ui,sans-serif" font-size="12" fill="#4a4a4a">Approve</text>
  <text x="445" y="145" text-anchor="middle" font-family="system-ui,sans-serif" font-size="10" fill="#8a8a8a">Multi-step</text>
  <path d="M510 130h40" stroke="#8b7355" stroke-width="2" marker-end="url(#a)"/>
  <rect x="550" y="90" width="130" height="80" rx="4" fill="#fff" stroke="#c8c4bc" stroke-width="1.5"/>
  <text x="615" y="125" text-anchor="middle" font-family="system-ui,sans-serif" font-size="12" fill="#4a4a4a">Archive</text>
  <text x="615" y="145" text-anchor="middle" font-family="system-ui,sans-serif" font-size="10" fill="#8a8a8a">CRM · ERP</text>
  <rect x="40" y="240" width="720" height="200" rx="6" fill="#fff" stroke="#c8c4bc"/>
  <text x="60" y="272" font-family="system-ui,sans-serif" font-size="11" font-weight="600" fill="#8b7355" letter-spacing="0.1em">APPROVAL CHAIN</text>
  <circle cx="120" cy="330" r="28" fill="#f0eeea" stroke="#8b7355" stroke-width="1.5"/>
  <text x="120" y="335" text-anchor="middle" font-family="system-ui,sans-serif" font-size="11" fill="#4a4a4a">Manager</text>
  <path d="M148 330h64" stroke="#8b7355" stroke-width="1.5" marker-end="url(#a)"/>
  <circle cx="260" cy="330" r="28" fill="#f0eeea" stroke="#8b7355" stroke-width="1.5"/>
  <text x="260" y="335" text-anchor="middle" font-family="system-ui,sans-serif" font-size="11" fill="#4a4a4a">Legal</text>
  <path d="M288 330h64" stroke="#8b7355" stroke-width="1.5" marker-end="url(#a)"/>
  <circle cx="400" cy="330" r="28" fill="#8b7355" fill-opacity="0.2" stroke="#8b7355" stroke-width="2"/>
  <text x="400" y="335" text-anchor="middle" font-family="system-ui,sans-serif" font-size="11" fill="#4a4a4a">Finance</text>
  <path d="M428 330h64" stroke="#8b7355" stroke-width="1.5" marker-end="url(#a)"/>
  <circle cx="540" cy="330" r="28" fill="#f0eeea" stroke="#c8c4bc" stroke-width="1.5"/>
  <text x="540" y="335" text-anchor="middle" font-family="system-ui,sans-serif" font-size="11" fill="#4a4a4a">Sign</text>
  <path d="M568 330h64" stroke="#8b7355" stroke-width="1.5" marker-end="url(#a)"/>
  <rect x="660" y="302" width="80" height="56" rx="4" fill="#8b7355" fill-opacity="0.15" stroke="#8b7355"/>
  <text x="700" y="335" text-anchor="middle" font-family="system-ui,sans-serif" font-size="11" fill="#1a1a1a">Done</text>
  <defs><marker id="a" markerWidth="8" markerHeight="8" refX="6" refY="3" orient="auto"><path d="M0,0 L6,3 L0,6" fill="#8b7355"/></marker></defs>
</svg>
