<svg xmlns="http://www.w3.org/2000/svg" width="48" height="48" viewBox="0 0 48 48" role="img" aria-label="SberCloud">
  <defs>
    <linearGradient id="g" x1="8" y1="40" x2="40" y2="8" gradientUnits="userSpaceOnUse">
      <stop stop-color="#00A651"/>
      <stop offset="1" stop-color="#9FD500"/>
    </linearGradient>
  </defs>
  <rect width="48" height="48" rx="12" fill="url(#g)"/>
  <path d="M24 13c-6.1 0-11 4.9-11 11s4.9 11 11 11c4.6 0 8.5-2.8 10.2-6.9h-5.4c-1.1 1.4-2.9 2.3-4.8 2.3-3.5 0-6.4-2.9-6.4-6.4s2.9-6.4 6.4-6.4c2.4 0 4.4 1.3 5.5 3.3h-7.6v4.5h13.3c.1-.5.1-1 .1-1.4 0-6.1-4.9-11-11-11z" fill="#fff"/>
</svg>
