<svg xmlns="http://www.w3.org/2000/svg" width="48" height="48" viewBox="0 0 48 48" role="img" aria-label="Selectel">
  <rect width="48" height="48" rx="12" fill="#111827"/>
  <path d="M31.4 14.8c-1.8-1.6-4.3-2.6-7.2-2.6-5.3 0-9.2 2.8-9.2 7 0 3.6 2.8 5.5 6.8 6.5l2.5.6c1.8.4 2.8 1 2.8 2.1 0 1.4-1.5 2.4-3.9 2.4-2.4 0-4.5-1-6.2-2.6l-4 3.9c2.2 2.5 5.9 4.1 10.2 4.1 6.1 0 10.3-3 10.3-7.7 0-3.8-2.6-5.8-6.9-6.8l-2.6-.6c-1.7-.4-2.6-.9-2.6-2 0-1.3 1.3-2.2 3.3-2.2 2.1 0 3.8.8 5.1 2.1z" fill="#fff"/>
</svg>
